<svg id="Touchmark_Workforce_logo" xmlns="http://www.w3.org/2000/svg" xmlns:xlink="http://www.w3.org/1999/xlink" width="206" height="44" viewBox="0 0 206 44">
  <defs>
    <clipPath id="clip-path">
      <rect id="Rectangle_6" data-name="Rectangle 6" width="206" height="44"/>
    </clipPath>
  </defs>
  <path id="Path_2" data-name="Path 2" d="M0,0V6.683H10.6V30.677h7.751V6.683h10.6V0Z" fill="#0038a7"/>
  <g id="Group_27" data-name="Group 27">
    <g id="Group_9" data-name="Group 9" clip-path="url(#clip-path)">
      <path id="Path_3" data-name="Path 3" d="M183.926,99.822a10.394,10.394,0,1,1,7.363-3.05,10.04,10.04,0,0,1-7.363,3.05m3.026-7.373a4.17,4.17,0,0,0,1.273-3.05,4.122,4.122,0,0,0-1.273-3.038,4.292,4.292,0,0,0-6.077,0A4.122,4.122,0,0,0,179.6,89.4a4.3,4.3,0,0,0,7.35,3.05" transform="translate(-151.627 -69.043)" fill="#0038a7"/>
    </g>
    <g id="Group_10" data-name="Group 10" clip-path="url(#clip-path)">
      <path id="Path_4" data-name="Path 4" d="M360.4,89.4a4.312,4.312,0,0,0,8.623,0V79h6.1V89.4a10.413,10.413,0,1,1-20.827,0V79h6.1Z" transform="translate(-309.633 -69.043)" fill="#0038a7"/>
    </g>
    <g id="Group_11" data-name="Group 11" clip-path="url(#clip-path)">
      <path id="Path_5" data-name="Path 5" d="M552.989,96.784a10.411,10.411,0,1,1,0-14.746l.756.756-4.324,4.323-.757-.756a4.223,4.223,0,0,0-3.038-1.26,4.311,4.311,0,1,0,3.038,7.335l.757-.756L553.745,96Z" transform="translate(-467.727 -69.043)" fill="#0038a7"/>
    </g>
    <g id="Group_12" data-name="Group 12" clip-path="url(#clip-path)">
      <path id="Path_6" data-name="Path 6" d="M704,52.255V62.678h-6.1V36.5H704v6.025c.63-.441,2.068-.668,4.324-.668a10.372,10.372,0,0,1,10.4,10.4V62.678h-6.1V52.255a4.122,4.122,0,0,0-1.273-3.038,4.292,4.292,0,0,0-6.077,0A4.055,4.055,0,0,0,704,52.255" transform="translate(-609.915 -31.9)" fill="#0038a7"/>
    </g>
    <g id="Group_13" data-name="Group 13" clip-path="url(#clip-path)">
      <path id="Path_7" data-name="Path 7" d="M896.526,81.887A10.413,10.413,0,0,1,914.265,89.3V99.722H908.15V89.3a4.122,4.122,0,0,0-1.273-3.038,4.292,4.292,0,0,0-6.077,0,4.122,4.122,0,0,0-1.273,3.038V99.722h-6.1V89.3a4.122,4.122,0,0,0-1.273-3.038,4.292,4.292,0,0,0-6.077,0A4.122,4.122,0,0,0,884.8,89.3V99.722h-6.1V89.3a10.351,10.351,0,0,1,10.426-10.386,10.345,10.345,0,0,1,7.4,2.974" transform="translate(-767.921 -68.956)" fill="#0038a7"/>
    </g>
    <g id="Group_14" data-name="Group 14" clip-path="url(#clip-path)">
      <path id="Path_8" data-name="Path 8" d="M1487.014,57.246v5.432H1480.9V36.5h6.114V48.663l5.724-6.806h7.476l-7.842,9.68a10.165,10.165,0,0,1,4.412,2.647c2.03,2.029,3.039,4.827,3.039,8.419h-6.115a5.6,5.6,0,0,0-1.273-4.1,4.174,4.174,0,0,0-3.026-1.26Z" transform="translate(-1294.202 -31.9)" fill="#0038a7"/>
    </g>
    <g id="Group_15" data-name="Group 15" clip-path="url(#clip-path)">
      <path id="Path_9" data-name="Path 9" d="M1381.549,81.507a13.558,13.558,0,0,1,4.614-.794V85.54a7.064,7.064,0,0,0-2.408.416,6.762,6.762,0,0,0-1.979,1.16,4.716,4.716,0,0,0-1.311,1.664,3.051,3.051,0,0,0-.491,1.891v10.638H1374.3V80.7h5.673v1.512a12.791,12.791,0,0,1,1.576-.706" transform="translate(-1201.041 -70.529)" fill="#0038a7"/>
    </g>
    <g id="Group_16" data-name="Group 16" clip-path="url(#clip-path)">
      <path id="Path_10" data-name="Path 10" d="M1193.558,79v2.483a10.411,10.411,0,1,0,0,15.856v2.483h4.829V79Zm-6.745,15.767a5.369,5.369,0,1,1,5.371-5.369,5.374,5.374,0,0,1-5.371,5.369" transform="translate(-1028.09 -69.043)" fill="#0038a7"/>
    </g>
    <g id="Group_17" data-name="Group 17" clip-path="url(#clip-path)">
      <path id="Path_11" data-name="Path 11" d="M688.806,291.7a1.688,1.688,0,1,1-2.433-1.928,3.274,3.274,0,0,0-.706-.076,3.466,3.466,0,1,0,3.467,3.466,3.358,3.358,0,0,0-.328-1.462" transform="translate(-596.194 -253.187)" fill="#0038a7"/>
    </g>
    <g id="Group_18" data-name="Group 18" clip-path="url(#clip-path)">
      <path id="Path_12" data-name="Path 12" d="M764.445,286.3h1.147l1.916,5.773,1.853-5.76h1.425l-2.711,7.827H766.9l-1.9-5.584-1.916,5.584h-1.172l-2.71-7.827h1.475l1.853,5.76Z" transform="translate(-663.487 -250.215)" fill="#f60"/>
    </g>
    <g id="Group_19" data-name="Group 19" clip-path="url(#clip-path)">
      <path id="Path_13" data-name="Path 13" d="M896.816,291.046a3.863,3.863,0,0,1-.845,1.286,4.136,4.136,0,0,1-1.286.87,4.091,4.091,0,0,1-1.639.328,4.046,4.046,0,0,1-1.639-.315,3.909,3.909,0,0,1-1.273-.857,3.98,3.98,0,0,1-.832-1.273,4.045,4.045,0,0,1-.3-1.55,4,4,0,0,1,.3-1.55,3.864,3.864,0,0,1,.845-1.286,4.134,4.134,0,0,1,1.286-.87,4.339,4.339,0,0,1,3.278-.013,3.907,3.907,0,0,1,1.273.857,3.977,3.977,0,0,1,.832,1.273,4.123,4.123,0,0,1,0,3.1m-1.324-2.609a2.727,2.727,0,0,0-.542-.882,2.821,2.821,0,0,0-.832-.6,2.512,2.512,0,0,0-1.072-.227,2.6,2.6,0,0,0-1.059.214,2.451,2.451,0,0,0-.832.592,2.967,2.967,0,0,0-.542.882,3.131,3.131,0,0,0,0,2.143,2.731,2.731,0,0,0,.542.882,2.668,2.668,0,0,0,.832.6,2.5,2.5,0,0,0,1.059.227,2.6,2.6,0,0,0,1.059-.214,2.449,2.449,0,0,0,.832-.592,2.963,2.963,0,0,0,.542-.882,3.04,3.04,0,0,0,.189-1.071,2.776,2.776,0,0,0-.177-1.071" transform="translate(-776.923 -249.516)" fill="#f60"/>
    </g>
    <g id="Group_20" data-name="Group 20" clip-path="url(#clip-path)">
      <path id="Path_14" data-name="Path 14" d="M1004.38,294.264l-1.916-2.71h-1.715v2.71H999.4V286.5h3.467a3.922,3.922,0,0,1,1.2.176,2.513,2.513,0,0,1,.908.492,1.959,1.959,0,0,1,.567.781,2.422,2.422,0,0,1,.2,1.021,2.623,2.623,0,0,1-.139.87,2.236,2.236,0,0,1-.958,1.185,3,3,0,0,1-.744.315l2.093,2.937h-1.614Zm-.454-6.214a1.921,1.921,0,0,0-1.185-.328h-1.992v2.622h2a1.783,1.783,0,0,0,1.172-.353,1.169,1.169,0,0,0,.429-.958,1.154,1.154,0,0,0-.429-.983" transform="translate(-873.405 -250.39)" fill="#f60"/>
    </g>
    <g id="Group_21" data-name="Group 21" clip-path="url(#clip-path)">
      <path id="Path_15" data-name="Path 15" d="M1102.671,294.177h-1.651l-2.66-3.5-1.2,1.248v2.256H1095.8V286.4h1.362v3.907l3.694-3.907h1.677l-3.24,3.34Z" transform="translate(-957.651 -250.303)" fill="#f60"/>
    </g>
    <g id="Group_22" data-name="Group 22" clip-path="url(#clip-path)">
      <path id="Path_16" data-name="Path 16" d="M1198.261,287.635h-4.413v2.143h3.921v1.235h-3.921v3.164H1192.5V286.4h5.761Z" transform="translate(-1042.161 -250.303)" fill="#f60"/>
    </g>
    <g id="Group_23" data-name="Group 23" clip-path="url(#clip-path)">
      <path id="Path_17" data-name="Path 17" d="M1287.616,291.046a3.861,3.861,0,0,1-.844,1.286,4.138,4.138,0,0,1-1.286.87,4.091,4.091,0,0,1-1.639.328,4.045,4.045,0,0,1-1.639-.315,3.913,3.913,0,0,1-1.273-.857,3.976,3.976,0,0,1-.832-1.273,4.041,4.041,0,0,1-.3-1.55,3.994,3.994,0,0,1,.3-1.55,3.86,3.86,0,0,1,.845-1.286,4.136,4.136,0,0,1,1.286-.87,4.091,4.091,0,0,1,1.639-.328,4.043,4.043,0,0,1,1.639.315,3.908,3.908,0,0,1,1.273.857,3.974,3.974,0,0,1,.832,1.273,4.124,4.124,0,0,1,0,3.1m-1.324-2.609a2.73,2.73,0,0,0-.542-.882,2.668,2.668,0,0,0-.832-.6,2.5,2.5,0,0,0-1.059-.227,2.6,2.6,0,0,0-1.059.214,2.449,2.449,0,0,0-.832.592,2.967,2.967,0,0,0-.542.882,3.128,3.128,0,0,0,0,2.143,2.73,2.73,0,0,0,.542.882,2.667,2.667,0,0,0,.832.6,2.513,2.513,0,0,0,1.072.227,2.648,2.648,0,0,0,1.059-.214,2.449,2.449,0,0,0,.832-.592,2.969,2.969,0,0,0,.542-.882,3.047,3.047,0,0,0,.189-1.071,3.366,3.366,0,0,0-.2-1.071" transform="translate(-1118.454 -249.516)" fill="#f60"/>
    </g>
    <g id="Group_24" data-name="Group 24" clip-path="url(#clip-path)">
      <path id="Path_18" data-name="Path 18" d="M1395.18,294.264l-1.916-2.71h-1.715v2.71H1390.2V286.5h3.467a4.068,4.068,0,0,1,1.211.176,2.621,2.621,0,0,1,.907.492,1.956,1.956,0,0,1,.568.781,2.423,2.423,0,0,1,.2,1.021,2.624,2.624,0,0,1-.139.87,2.232,2.232,0,0,1-.958,1.185,3,3,0,0,1-.744.315l2.093,2.937h-1.626Zm-.454-6.214a1.921,1.921,0,0,0-1.185-.328h-1.992v2.622h2a1.784,1.784,0,0,0,1.173-.353,1.169,1.169,0,0,0,.429-.958,1.155,1.155,0,0,0-.429-.983" transform="translate(-1214.936 -250.39)" fill="#f60"/>
    </g>
    <g id="Group_25" data-name="Group 25" clip-path="url(#clip-path)">
      <path id="Path_19" data-name="Path 19" d="M1490.293,292.447a3.646,3.646,0,0,1-.706.429,3.4,3.4,0,0,1-.832.277,4.879,4.879,0,0,1-1,.088,3.827,3.827,0,0,1-1.576-.315,3.9,3.9,0,0,1-1.248-.844,3.845,3.845,0,0,1-.832-1.273,4.082,4.082,0,0,1-.3-1.575,4.308,4.308,0,0,1,.29-1.563,3.832,3.832,0,0,1,.832-1.286,3.893,3.893,0,0,1,2.887-1.185,4.633,4.633,0,0,1,.971.088,4.026,4.026,0,0,1,.807.252,5.921,5.921,0,0,1,.681.378,7.251,7.251,0,0,1,.593.492l-.883,1.008a4.511,4.511,0,0,0-.983-.693,2.6,2.6,0,0,0-1.185-.265,2.469,2.469,0,0,0-1.021.214,2.4,2.4,0,0,0-.82.592,2.778,2.778,0,0,0-.529.87,2.992,2.992,0,0,0-.189,1.071,3.061,3.061,0,0,0,.189,1.084,2.7,2.7,0,0,0,.529.882,2.4,2.4,0,0,0,.82.592,2.512,2.512,0,0,0,1.021.214,2.469,2.469,0,0,0,1.223-.277,4.411,4.411,0,0,0,1.009-.744l.882.882a4.016,4.016,0,0,1-.63.605" transform="translate(-1296.736 -249.254)" fill="#f60"/>
    </g>
    <g id="Group_26" data-name="Group 26" clip-path="url(#clip-path)">
      <path id="Path_20" data-name="Path 20" d="M1590.149,287.635h-4.387v2h3.883v1.223h-3.883v2.08h4.438v1.235h-5.8V286.4h5.749Z" transform="translate(-1384.653 -250.303)" fill="#f60"/>
    </g>
  </g>
</svg>
